<?xml version="1.0" encoding="utf-8"?>
<!-- Generator: Adobe Illustrator 17.0.0, SVG Export Plug-In . SVG Version: 6.00 Build 0)  -->
<!DOCTYPE svg PUBLIC "-//W3C//DTD SVG 1.1//EN" "http://www.w3.org/Graphics/SVG/1.1/DTD/svg11.dtd">
<svg version="1.1" id="Layer_1" xmlns="http://www.w3.org/2000/svg" xmlns:xlink="http://www.w3.org/1999/xlink" x="0px" y="0px"
	 width="166px" height="40px" viewBox="0 0 166 40" enable-background="new 0 0 166 40" xml:space="preserve">
<desc>{&quot;leftTopX&quot;: 4462, &quot;leftTopY&quot;: 4619, &quot;rightBottomX&quot;: 5185, &quot;rightBottomY&quot;: 5081}
	</desc>
<g transform="translate(0.5,0.5)">
	<g>
		<polyline fill="none" stroke="#000000" points="-174.75,-244.139 -337.75,-244.139 -337.75,-231.139 		"/>
		<g>
			<line fill="none" stroke="#000000" x1="-226.75" y1="-244.139" x2="-241.75" y2="-250.139"/>
			<line fill="none" stroke="#000000" x1="-226.75" y1="-244.139" x2="-241.75" y2="-238.139"/>
			<g transform="translate(252.0,386.0)">
				<circle fill="#FFFFFF" stroke="#000000" cx="-478.75" cy="-630.139" r="3.5"/>
			</g>
		</g>
		<g>
			<line fill="none" stroke="#000000" x1="-199.75" y1="-250.139" x2="-199.75" y2="-238.139"/>
		</g>
	</g>
	<g>
		<polyline fill="none" stroke="#000000" points="-262.75,-425.139 -262.75,-284.139 -251.75,-284.139 		"/>
		<g>
			<line fill="none" stroke="#000000" x1="-262.75" y1="-309.139" x2="-268.75" y2="-294.139"/>
			<line fill="none" stroke="#000000" x1="-262.75" y1="-309.139" x2="-256.75" y2="-294.139"/>
			<g transform="translate(216.0,321.0)">
				<circle fill="#FFFFFF" stroke="#000000" cx="-478.75" cy="-630.139" r="3.5"/>
			</g>
		</g>
		<g>
			<line fill="none" stroke="#000000" x1="-268.75" y1="-400.139" x2="-256.75" y2="-400.139"/>
		</g>
	</g>
	<g>
		<polyline fill="none" stroke="#000000" points="-73.75,-569.139 -73.75,-211.139 -63.75,-211.139 -63.75,-246.139 		"/>
		<g>
			<line fill="none" stroke="#000000" x1="-73.75" y1="-311.139" x2="-79.75" y2="-296.139"/>
			<line fill="none" stroke="#000000" x1="-73.75" y1="-311.139" x2="-67.75" y2="-296.139"/>
			<g transform="translate(405.0,319.0)">
				<circle fill="#FFFFFF" stroke="#000000" cx="-478.75" cy="-630.139" r="3.5"/>
			</g>
		</g>
		<g>
			<line fill="none" stroke="#000000" x1="-79.75" y1="-400.139" x2="-67.75" y2="-400.139"/>
		</g>
	</g>
	<g>
		<polyline fill="none" stroke="#000000" points="-143.75,-447.139 127.25,-447.139 127.25,-256.139 66.25,-256.139 		"/>
		<g>
			<line fill="none" stroke="#000000" x1="127.25" y1="-419.139" x2="121.25" y2="-404.139"/>
			<line fill="none" stroke="#000000" x1="127.25" y1="-419.139" x2="133.25" y2="-404.139"/>
			<g transform="translate(606.0,211.0)">
				<circle fill="#FFFFFF" stroke="#000000" cx="-478.75" cy="-630.139" r="3.5"/>
			</g>
		</g>
		<g>
			<line fill="none" stroke="#000000" x1="-14.75" y1="-453.139" x2="-14.75" y2="-441.139"/>
		</g>
	</g>
	<g>
		<polyline fill="none" stroke="#000000" points="-138.75,-425.139 1.25,-425.139 1.25,-347.139 81.25,-347.139 		"/>
		<g>
			<line fill="none" stroke="#000000" x1="20.25" y1="-347.139" x2="35.25" y2="-353.139"/>
			<line fill="none" stroke="#000000" x1="20.25" y1="-347.139" x2="35.25" y2="-341.139"/>
			<g transform="translate(499.0,283.0)">
				<circle fill="#FFFFFF" stroke="#000000" cx="-478.75" cy="-630.139" r="3.5"/>
			</g>
		</g>
		<g>
			<line fill="none" stroke="#000000" x1="-14.75" y1="-431.139" x2="-14.75" y2="-419.139"/>
		</g>
	</g>
	<g transform="translate(20.0,21.0)">
		<g transform="translate(0.0,0.0)">
			<rect x="-478.75" y="-630.139" fill="#F0F0F0" width="142" height="20"/>
		</g>
		<g transform="translate(0.0,0.0)">
			<text transform="matrix(1 0 0 1 -432.4229 -615.948)" font-family="'Arial-BoldMT'" font-size="12">Medicine</text>
		</g>
		<g transform="translate(0.0,20.0)">
			<rect x="-478.75" y="-630.139" fill="#FFFFFF" width="142" height="60"/>
			<g transform="translate(4.0,3.0)">
				<g transform="translate(0.0,0.0)">
					<text transform="matrix(1 0 0 1 -477.75 -619)" font-family="'ArialMT'" font-size="12">Id</text>
				</g>
				<g transform="translate(0.0,14.0)">
					<text transform="matrix(1 0 0 1 -477.75 -619)" font-family="'ArialMT'" font-size="12">Name</text>
				</g>
				<g transform="translate(0.0,28.0)">
					<text transform="matrix(1 0 0 1 -477.75 -619)" font-family="'ArialMT'" font-size="12">Prospect</text>
				</g>
			</g>
			<g transform="translate(82.75,3.0)">
				<g transform="translate(0.0,0.0)">
					<text transform="matrix(1 0 0 1 -477.75 -619)" font-family="'ArialMT'" font-size="12">Guid</text>
				</g>
				<g transform="translate(0.0,14.0)">
					<text transform="matrix(1 0 0 1 -477.75 -619)" font-family="'ArialMT'" font-size="12">String</text>
				</g>
				<g transform="translate(0.0,28.0)">
					<text transform="matrix(1 0 0 1 -477.75 -619)" font-family="'ArialMT'" font-size="12">String</text>
				</g>
			</g>
			<g transform="translate(122.75,3.0)">
				<g transform="translate(0.0,0.0)">
					<text transform="matrix(1 0 0 1 -477.75 -619)" font-family="'ArialMT'" font-size="12">PK</text>
				</g>
				<g transform="translate(0.0,14.0)">
				</g>
				<g transform="translate(0.0,28.0)">
				</g>
			</g>
		</g>
		<polyline fill="none" stroke="#000000" points="-478.75,-610.139 -478.75,-630.139 -336.75,-630.139 -336.75,-610.139 
			-478.75,-610.139 -478.75,-550.139 -336.75,-550.139 -336.75,-610.139 		"/>
	</g>
	<g transform="translate(206.0,20.0)">
		<g transform="translate(0.0,0.0)">
			<rect x="-478.75" y="-630.139" fill="#F0F0F0" width="243" height="20"/>
		</g>
		<g transform="translate(0.0,0.0)">
			<text transform="matrix(1 0 0 1 -369.5918 -615.948)" font-family="'Arial-BoldMT'" font-size="12">User</text>
		</g>
		<g transform="translate(0.0,20.0)">
			<rect x="-478.75" y="-630.139" fill="#FFFFFF" width="243" height="175"/>
			<g transform="translate(4.0,3.0)">
				<g transform="translate(0.0,0.0)">
					<text transform="matrix(1 0 0 1 -477.75 -619)" font-family="'ArialMT'" font-size="12">Id</text>
				</g>
				<g transform="translate(0.0,14.0)">
					<text transform="matrix(1 0 0 1 -477.75 -619)" font-family="'ArialMT'" font-size="12">Role</text>
				</g>
				<g transform="translate(0.0,28.0)">
					<text transform="matrix(1 0 0 1 -477.75 -619)" font-family="'ArialMT'" font-size="12">Email</text>
				</g>
				<g transform="translate(0.0,42.0)">
					<text transform="matrix(1 0 0 1 -477.75 -619)" font-family="'ArialMT'" font-size="12">Password</text>
				</g>
				<g transform="translate(0.0,56.0)">
					<text transform="matrix(1 0 0 1 -477.75 -619)" font-family="'ArialMT'" font-size="12">First_Name</text>
				</g>
				<g transform="translate(0.0,70.0)">
					<text transform="matrix(1 0 0 1 -477.75 -619)" font-family="'ArialMT'" font-size="12">Last_Name</text>
				</g>
				<g transform="translate(0.0,84.0)">
					<text transform="matrix(1 0 0 1 -477.75 -619)" font-family="'ArialMT'" font-size="12">Birth_Date</text>
				</g>
				<g transform="translate(0.0,98.0)">
					<text transform="matrix(1 0 0 1 -477.75 -619)" font-family="'ArialMT'" font-size="12">Title</text>
				</g>
				<g transform="translate(0.0,112.0)">
					<text transform="matrix(1 0 0 1 -477.75 -619)" font-family="'ArialMT'" font-size="12">Cabinet_Address</text>
				</g>
				<g transform="translate(0.0,126.0)">
					<text transform="matrix(1 0 0 1 -477.75 -619)" font-family="'ArialMT'" font-size="12">Phone_Number</text>
				</g>
				<g transform="translate(0.0,140.0)">
					<text transform="matrix(1 0 0 1 -477.75 -619)" font-family="'ArialMT'" font-size="12">Active_Account</text>
				</g>
			</g>
			<g transform="translate(146.75,3.0)">
				<g transform="translate(0.0,0.0)">
					<text transform="matrix(1 0 0 1 -477.75 -619)" font-family="'ArialMT'" font-size="12">Guid</text>
				</g>
				<g transform="translate(0.0,14.0)">
					<text transform="matrix(1 0 0 1 -477.75 -619)" font-family="'ArialMT'" font-size="12">String</text>
				</g>
				<g transform="translate(0.0,28.0)">
					<text transform="matrix(1 0 0 1 -477.75 -619)" font-family="'ArialMT'" font-size="12">String</text>
				</g>
				<g transform="translate(0.0,42.0)">
					<text transform="matrix(1 0 0 1 -477.75 -619)" font-family="'ArialMT'" font-size="12">String</text>
				</g>
				<g transform="translate(0.0,56.0)">
					<text transform="matrix(1 0 0 1 -477.75 -619)" font-family="'ArialMT'" font-size="12">String</text>
				</g>
				<g transform="translate(0.0,70.0)">
					<text transform="matrix(1 0 0 1 -477.75 -619)" font-family="'ArialMT'" font-size="12">String</text>
				</g>
				<g transform="translate(0.0,84.0)">
					<text transform="matrix(1 0 0 1 -477.75 -619)" font-family="'ArialMT'" font-size="12">DateTime</text>
				</g>
				<g transform="translate(0.0,98.0)">
					<text transform="matrix(1 0 0 1 -477.75 -619)" font-family="'ArialMT'" font-size="12">String</text>
				</g>
				<g transform="translate(0.0,112.0)">
					<text transform="matrix(1 0 0 1 -477.75 -619)" font-family="'ArialMT'" font-size="12">String</text>
				</g>
				<g transform="translate(0.0,126.0)">
					<text transform="matrix(1 0 0 1 -477.75 -619)" font-family="'ArialMT'" font-size="12">Number(10)</text>
				</g>
				<g transform="translate(0.0,140.0)">
					<text transform="matrix(1 0 0 1 -477.75 -619)" font-family="'ArialMT'" font-size="12">Bool</text>
				</g>
			</g>
			<g transform="translate(223.75,3.0)">
				<g transform="translate(0.0,0.0)">
					<text transform="matrix(1 0 0 1 -477.75 -619)" font-family="'ArialMT'" font-size="12">PK</text>
				</g>
				<g transform="translate(0.0,14.0)">
				</g>
				<g transform="translate(0.0,28.0)">
				</g>
				<g transform="translate(0.0,42.0)">
				</g>
				<g transform="translate(0.0,56.0)">
				</g>
				<g transform="translate(0.0,70.0)">
				</g>
				<g transform="translate(0.0,84.0)">
				</g>
				<g transform="translate(0.0,98.0)">
					<text transform="matrix(1 0 0 1 -477.75 -619)" font-family="'ArialMT'" font-size="12">N</text>
				</g>
				<g transform="translate(0.0,112.0)">
					<text transform="matrix(1 0 0 1 -477.75 -619)" font-family="'ArialMT'" font-size="12">N</text>
				</g>
				<g transform="translate(0.0,126.0)">
				</g>
				<g transform="translate(0.0,140.0)">
				</g>
			</g>
		</g>
		<polyline fill="none" stroke="#000000" points="-478.75,-610.139 -478.75,-630.139 -235.75,-630.139 -235.75,-610.139 
			-478.75,-610.139 -478.75,-435.139 -235.75,-435.139 -235.75,-610.139 		"/>
	</g>
	<g transform="translate(20.0,336.0)">
		<g transform="translate(0.0,0.0)">
			<rect x="-478.75" y="-630.139" fill="#F0F0F0" width="217" height="20"/>
		</g>
		<g transform="translate(0.0,0.0)">
			<text transform="matrix(1 0 0 1 -390.9238 -615.948)" font-family="'Arial-BoldMT'" font-size="12">Answer</text>
		</g>
		<g transform="translate(0.0,20.0)">
			<rect x="-478.75" y="-630.139" fill="#FFFFFF" width="217" height="86"/>
			<g transform="translate(4.0,3.0)">
				<g transform="translate(0.0,0.0)">
					<text transform="matrix(1 0 0 1 -477.75 -619)" font-family="'ArialMT'" font-size="12">Id</text>
				</g>
				<g transform="translate(0.0,14.0)">
					<text transform="matrix(1 0 0 1 -477.75 -619)" font-family="'ArialMT'" font-size="12">User_Id</text>
				</g>
				<g transform="translate(0.0,28.0)">
					<text transform="matrix(1 0 0 1 -477.75 -619)" font-family="'ArialMT'" font-size="12">Question_Id</text>
				</g>
				<g transform="translate(0.0,42.0)">
					<text transform="matrix(1 0 0 1 -477.75 -619)" font-family="'ArialMT'" font-size="12">Created_Date</text>
				</g>
				<g transform="translate(0.0,56.0)">
					<text transform="matrix(1 0 0 1 -477.75 -619)" font-family="'ArialMT'" font-size="12">Text</text>
				</g>
			</g>
			<g transform="translate(135.25,3.0)">
				<g transform="translate(0.0,0.0)">
					<text transform="matrix(1 0 0 1 -477.75 -619)" font-family="'ArialMT'" font-size="12">Guid</text>
				</g>
				<g transform="translate(0.0,14.0)">
					<text transform="matrix(1 0 0 1 -477.75 -619)" font-family="'ArialMT'" font-size="12">Guid</text>
				</g>
				<g transform="translate(0.0,28.0)">
					<text transform="matrix(1 0 0 1 -477.75 -619)" font-family="'ArialMT'" font-size="12">Guid</text>
				</g>
				<g transform="translate(0.0,42.0)">
					<text transform="matrix(1 0 0 1 -477.75 -619)" font-family="'ArialMT'" font-size="12">DateTime</text>
				</g>
				<g transform="translate(0.0,56.0)">
					<text transform="matrix(1 0 0 1 -477.75 -619)" font-family="'ArialMT'" font-size="12">String</text>
				</g>
			</g>
			<g transform="translate(197.75,3.0)">
				<g transform="translate(0.0,0.0)">
					<text transform="matrix(1 0 0 1 -477.75 -619)" font-family="'ArialMT'" font-size="12">PK</text>
				</g>
				<g transform="translate(0.0,14.0)">
					<text transform="matrix(1 0 0 1 -477.75 -619)" font-family="'ArialMT'" font-size="12">FK</text>
				</g>
				<g transform="translate(0.0,28.0)">
					<text transform="matrix(1 0 0 1 -477.75 -619)" font-family="'ArialMT'" font-size="12">FK</text>
				</g>
				<g transform="translate(0.0,42.0)">
				</g>
				<g transform="translate(0.0,56.0)">
				</g>
			</g>
		</g>
		<polyline fill="none" stroke="#000000" points="-478.75,-610.139 -478.75,-630.139 -261.75,-630.139 -261.75,-610.139 
			-478.75,-610.139 -478.75,-524.139 -261.75,-524.139 -261.75,-610.139 		"/>
	</g>
	<g transform="translate(294.0,334.0)">
		<g transform="translate(0.0,0.0)">
			<rect x="-478.75" y="-630.139" fill="#F0F0F0" width="210" height="20"/>
		</g>
		<g transform="translate(0.0,0.0)">
			<text transform="matrix(1 0 0 1 -398.751 -615.948)" font-family="'Arial-BoldMT'" font-size="12">Question</text>
		</g>
		<g transform="translate(0.0,20.0)">
			<rect x="-478.75" y="-630.139" fill="#FFFFFF" width="210" height="88"/>
			<g transform="translate(4.0,3.0)">
				<g transform="translate(0.0,0.0)">
					<text transform="matrix(1 0 0 1 -477.75 -619)" font-family="'ArialMT'" font-size="12">Id</text>
				</g>
				<g transform="translate(0.0,14.0)">
					<text transform="matrix(1 0 0 1 -477.75 -619)" font-family="'ArialMT'" font-size="12">User_Id</text>
				</g>
				<g transform="translate(0.0,28.0)">
					<text transform="matrix(1 0 0 1 -477.75 -619)" font-family="'ArialMT'" font-size="12">Created_Date</text>
				</g>
				<g transform="translate(0.0,42.0)">
					<text transform="matrix(1 0 0 1 -477.75 -619)" font-family="'ArialMT'" font-size="12">Text</text>
				</g>
			</g>
			<g transform="translate(128.25,3.0)">
				<g transform="translate(0.0,0.0)">
					<text transform="matrix(1 0 0 1 -477.75 -619)" font-family="'ArialMT'" font-size="12">Guid</text>
				</g>
				<g transform="translate(0.0,14.0)">
					<text transform="matrix(1 0 0 1 -477.75 -619)" font-family="'ArialMT'" font-size="12">Guid</text>
				</g>
				<g transform="translate(0.0,28.0)">
					<text transform="matrix(1 0 0 1 -477.75 -619)" font-family="'ArialMT'" font-size="12">DateTime</text>
				</g>
				<g transform="translate(0.0,42.0)">
					<text transform="matrix(1 0 0 1 -477.75 -619)" font-family="'ArialMT'" font-size="12">String</text>
				</g>
			</g>
			<g transform="translate(190.75,3.0)">
				<g transform="translate(0.0,0.0)">
					<text transform="matrix(1 0 0 1 -477.75 -619)" font-family="'ArialMT'" font-size="12">PK</text>
				</g>
				<g transform="translate(0.0,14.0)">
					<text transform="matrix(1 0 0 1 -477.75 -619)" font-family="'ArialMT'" font-size="12">FK</text>
				</g>
				<g transform="translate(0.0,28.0)">
				</g>
				<g transform="translate(0.0,42.0)">
				</g>
			</g>
		</g>
		<polyline fill="none" stroke="#000000" points="-478.75,-610.139 -478.75,-630.139 -268.75,-630.139 -268.75,-610.139 
			-478.75,-610.139 -478.75,-522.139 -268.75,-522.139 -268.75,-610.139 		"/>
	</g>
	<g transform="translate(514.0,226.0)">
		<g transform="translate(0.0,0.0)">
			<rect x="-478.75" y="-630.139" fill="#F0F0F0" width="189" height="20"/>
		</g>
		<g transform="translate(0.0,0.0)">
			<text transform="matrix(1 0 0 1 -405.5801 -615.948)" font-family="'Arial-BoldMT'" font-size="12">Consult</text>
		</g>
		<g transform="translate(0.0,20.0)">
			<rect x="-478.75" y="-630.139" fill="#FFFFFF" width="189" height="138"/>
			<g transform="translate(4.0,3.0)">
				<g transform="translate(0.0,0.0)">
					<text transform="matrix(1 0 0 1 -477.75 -619)" font-family="'ArialMT'" font-size="12">Id</text>
				</g>
				<g transform="translate(0.0,14.0)">
					<text transform="matrix(1 0 0 1 -477.75 -619)" font-family="'ArialMT'" font-size="12">Doctor_Id</text>
				</g>
				<g transform="translate(0.0,28.0)">
					<text transform="matrix(1 0 0 1 -477.75 -619)" font-family="'ArialMT'" font-size="12">Patient_Id</text>
				</g>
				<g transform="translate(0.0,42.0)">
					<text transform="matrix(1 0 0 1 -477.75 -619)" font-family="'ArialMT'" font-size="12">Created_Date</text>
				</g>
				<g transform="translate(0.0,56.0)">
					<text transform="matrix(1 0 0 1 -477.75 -619)" font-family="'ArialMT'" font-size="12">Result</text>
				</g>
				<g transform="translate(0.0,70.0)">
					<text transform="matrix(1 0 0 1 -477.75 -619)" font-family="'ArialMT'" font-size="12">Prospect</text>
				</g>
			</g>
			<g transform="translate(107.25,3.0)">
				<g transform="translate(0.0,0.0)">
					<text transform="matrix(1 0 0 1 -477.75 -619)" font-family="'ArialMT'" font-size="12">Guid</text>
				</g>
				<g transform="translate(0.0,14.0)">
					<text transform="matrix(1 0 0 1 -477.75 -619)" font-family="'ArialMT'" font-size="12">Guid</text>
				</g>
				<g transform="translate(0.0,28.0)">
					<text transform="matrix(1 0 0 1 -477.75 -619)" font-family="'ArialMT'" font-size="12">Guid</text>
				</g>
				<g transform="translate(0.0,42.0)">
					<text transform="matrix(1 0 0 1 -477.75 -619)" font-family="'ArialMT'" font-size="12">DateTime</text>
				</g>
				<g transform="translate(0.0,56.0)">
					<text transform="matrix(1 0 0 1 -477.75 -619)" font-family="'ArialMT'" font-size="12">String</text>
				</g>
				<g transform="translate(0.0,70.0)">
					<text transform="matrix(1 0 0 1 -477.75 -619)" font-family="'ArialMT'" font-size="12">String</text>
				</g>
			</g>
			<g transform="translate(169.75,3.0)">
				<g transform="translate(0.0,0.0)">
					<text transform="matrix(1 0 0 1 -477.75 -619)" font-family="'ArialMT'" font-size="12">PK</text>
				</g>
				<g transform="translate(0.0,14.0)">
					<text transform="matrix(1 0 0 1 -477.75 -619)" font-family="'ArialMT'" font-size="12">FK</text>
				</g>
				<g transform="translate(0.0,28.0)">
					<text transform="matrix(1 0 0 1 -477.75 -619)" font-family="'ArialMT'" font-size="12">FK</text>
				</g>
				<g transform="translate(0.0,42.0)">
				</g>
				<g transform="translate(0.0,56.0)">
				</g>
				<g transform="translate(0.0,70.0)">
				</g>
			</g>
		</g>
		<polyline fill="none" stroke="#000000" points="-478.75,-610.139 -478.75,-630.139 -289.75,-630.139 -289.75,-610.139 
			-478.75,-610.139 -478.75,-472.139 -289.75,-472.139 -289.75,-610.139 		"/>
	</g>
	<g transform="translate(466.0,21.0)">
		<polygon fill="#FFF9C3" stroke="#000000" stroke-linejoin="bevel" points="-256.75,-630.139 -478.75,-630.139 -478.75,-486.139 
			-241.75,-486.139 -241.75,-615.139 -256.75,-615.139 		"/>
		<polygon fill="#FFF9C3" stroke="#000000" stroke-linejoin="bevel" points="-256.75,-630.139 -241.75,-615.139 -256.75,-615.139 		
			"/>
		<g transform="translate(5.0,5.0)">
			<g transform="translate(0.0,0.0)">
				<text transform="matrix(1 0 0 1 -477.75 -621)" font-family="'ArialMT'" font-size="12">Note:</text>
			</g>
			<g transform="translate(0.0,14.0)">
			</g>
			<g transform="translate(0.0,28.0)">
				<text transform="matrix(1 0 0 1 -477.75 -621)" font-family="'ArialMT'" font-size="12">There are 4 Roles - Owner;</text>
			</g>
			<g transform="translate(0.0,42.0)">
				<text transform="matrix(1 0 0 1 -477.75 -621)" font-family="'ArialMT'" font-size="12">- Moderator;</text>
			</g>
			<g transform="translate(0.0,56.0)">
				<text transform="matrix(1 0 0 1 -477.75 -621)" font-family="'ArialMT'" font-size="12">- Doctor;</text>
			</g>
			<g transform="translate(0.0,70.0)">
				<text transform="matrix(1 0 0 1 -477.75 -621)" font-family="'ArialMT'" font-size="12">- Patient;</text>
			</g>
			<g transform="translate(0.0,84.0)">
			</g>
			<g transform="translate(0.0,98.0)">
				<text transform="matrix(1 0 0 1 -477.75 -621)" font-family="'ArialMT'" font-size="12">That&apos;s why there are 2</text>
			</g>
			<g transform="translate(0.0,112.0)">
				<text transform="matrix(1 0 0 1 -477.75 -621)" font-family="'ArialMT'" font-size="12">references</text>
			</g>
			<g transform="translate(0.0,126.0)">
				<text transform="matrix(1 0 0 1 -477.75 -621)" font-family="'ArialMT'" font-size="12">between User Table and Consult</text>
			</g>
		</g>
	</g>
	<g transform="translate(20.0,107.0)">
		<polygon fill="#FFF9C3" stroke="#000000" stroke-linejoin="bevel" points="-312.75,-630.139 -478.75,-630.139 -478.75,-413.139 
			-297.75,-413.139 -297.75,-615.139 -312.75,-615.139 		"/>
		<polygon fill="#FFF9C3" stroke="#000000" stroke-linejoin="bevel" points="-312.75,-630.139 -297.75,-615.139 -312.75,-615.139 		
			"/>
		<g transform="translate(5.0,5.0)">
			<g transform="translate(0.0,0.0)">
				<text transform="matrix(1 0 0 1 -477.75 -619)" font-family="'ArialMT'" font-size="12">Note:</text>
			</g>
			<g transform="translate(0.0,14.0)">
			</g>
			<g transform="translate(0.0,28.0)">
				<text transform="matrix(1 0 0 1 -477.75 -619)" font-family="'ArialMT'" font-size="12">For now I used the</text>
			</g>
			<g transform="translate(0.0,42.0)">
				<text transform="matrix(1 0 0 1 -477.75 -619)" font-family="'ArialMT'" font-size="12">&quot;Prospect &quot;property from</text>
			</g>
			<g transform="translate(0.0,56.0)">
				<text transform="matrix(1 0 0 1 -477.75 -619)" font-family="'ArialMT'" font-size="12">Consult Table as a kind of</text>
			</g>
			<g transform="translate(0.0,70.0)">
				<text transform="matrix(1 0 0 1 -477.75 -619)" font-family="'ArialMT'" font-size="12">reference to Medicine</text>
			</g>
			<g transform="translate(0.0,84.0)">
				<text transform="matrix(1 0 0 1 -477.75 -619)" font-family="'ArialMT'" font-size="12">Table, with small &quot;How</text>
			</g>
			<g transform="translate(0.0,98.0)">
				<text transform="matrix(1 0 0 1 -477.75 -619)" font-family="'ArialMT'" font-size="12">often use it&quot;</text>
			</g>
			<g transform="translate(0.0,112.0)">
				<text transform="matrix(1 0 0 1 -477.75 -619)" font-family="'ArialMT'" font-size="12">Ex: Medicine1(3 times /</text>
			</g>
			<g transform="translate(0.0,126.0)">
				<text transform="matrix(1 0 0 1 -477.75 -619)" font-family="'ArialMT'" font-size="12">day)</text>
			</g>
			<g transform="translate(0.0,140.0)">
			</g>
			<g transform="translate(0.0,154.0)">
				<text transform="matrix(1 0 0 1 -477.75 -619)" font-family="'ArialMT'" font-size="12">But in the future, I&apos;d like to</text>
			</g>
			<g transform="translate(0.0,168.0)">
				<text transform="matrix(1 0 0 1 -477.75 -619)" font-family="'ArialMT'" font-size="12">have a reference between</text>
			</g>
			<g transform="translate(0.0,182.0)">
				<text transform="matrix(1 0 0 1 -477.75 -619)" font-family="'ArialMT'" font-size="12">Consult Table and Medicine</text>
			</g>
			<g transform="translate(0.0,196.0)">
				<text transform="matrix(1 0 0 1 -477.75 -619)" font-family="'ArialMT'" font-size="12">Table: there would be</text>
			</g>
		</g>
	</g>
</g>
</svg>
